<svg version="1.2" xmlns="http://www.w3.org/2000/svg" viewBox="0 0 400 400" width="400" height="400">
	<style>
		.s0 { fill: #ffffff } 
		.s1 { fill: #2a2a2a } 
		.s2 { fill: #e91e63 } 
		.s3 { fill: #2196f3 } 
		.s4 { fill: #ff9800 } 
		.s5 { fill: #673ab7 } 
		.s6 { fill: #8bc34a } 
		.s7 { fill: #9c27b0 } 
		.s8 { fill: #00bcd4 } 
		.s9 { fill: #4caf50 } 
		.s10 { fill: #ff5722 } 
		.s11 { fill: #3f51b5 } 
		.s12 { fill: #009688 } 
		.s13 { fill: #ec407a } 
		.s14 { fill: #cddc39 } 
		.s15 { fill: #ffeb3b } 
		.s16 { fill: #f44336 } 
	</style>
	<g id="Layer 1">
		<path class="s0" d="m70.61 16h258.78c31.27 0 56.61 25.06 56.61 55.97v255.86c0 30.91-25.34 55.97-56.61 55.97h-258.78c-31.27 0-56.61-25.06-56.61-55.97v-255.86c0-30.91 25.34-55.97 56.61-55.97z"/>
		<path class="s1" d="m67.37 36.79h265.26c17.87 0 32.34 14.31 32.34 31.98v262.26c0 17.67-14.47 31.98-32.34 31.98h-265.26c-17.87 0-32.34-14.31-32.34-31.98v-262.26c0-17.67 14.47-31.98 32.34-31.98z"/>
		<path class="s2" d="m72.23 70.37h46.9c2.69 0 4.85 2.14 4.85 4.8v46.37c0 2.66-2.16 4.8-4.85 4.8h-46.9c-2.69 0-4.86-2.14-4.86-4.8v-46.37c0-2.66 2.17-4.8 4.86-4.8z"/>
		<path class="s3" d="m141.77 70.37h46.91c2.68 0 4.85 2.14 4.85 4.8v46.37c0 2.66-2.17 4.8-4.85 4.8h-46.91c-2.68 0-4.85-2.14-4.85-4.8v-46.37c0-2.66 2.17-4.8 4.85-4.8z"/>
		<path class="s4" d="m211.32 70.37h46.91c2.68 0 4.85 2.14 4.85 4.8v46.37c0 2.66-2.17 4.8-4.85 4.8h-46.91c-2.68 0-4.85-2.14-4.85-4.8v-46.37c0-2.66 2.17-4.8 4.85-4.8z"/>
		<path class="s5" d="m280.87 70.37h46.9c2.69 0 4.86 2.14 4.86 4.8v46.37c0 2.66-2.17 4.8-4.86 4.8h-46.9c-2.69 0-4.85-2.14-4.85-4.8v-46.37c0-2.66 2.16-4.8 4.85-4.8z"/>
		<path class="s6" d="m72.23 139.13h46.9c2.69 0 4.85 2.15 4.85 4.8v46.38c0 2.65-2.16 4.79-4.85 4.79h-46.9c-2.69 0-4.86-2.14-4.86-4.79v-46.38c0-2.65 2.17-4.8 4.86-4.8z"/>
		<path class="s7" d="m141.77 139.13h46.91c2.68 0 4.85 2.15 4.85 4.8v46.38c0 2.65-2.17 4.79-4.85 4.79h-46.91c-2.68 0-4.85-2.14-4.85-4.79v-46.38c0-2.65 2.17-4.8 4.85-4.8z"/>
		<path class="s8" d="m211.32 139.13h46.91c2.68 0 4.85 2.15 4.85 4.8v46.38c0 2.65-2.17 4.79-4.85 4.79h-46.91c-2.68 0-4.85-2.14-4.85-4.79v-46.38c0-2.65 2.17-4.8 4.85-4.8z"/>
		<path class="s9" d="m280.87 139.13h46.9c2.69 0 4.86 2.15 4.86 4.8v46.38c0 2.65-2.17 4.79-4.86 4.79h-46.9c-2.69 0-4.85-2.14-4.85-4.79v-46.38c0-2.65 2.16-4.8 4.85-4.8z"/>
		<path class="s10" d="m72.23 207.9h46.9c2.69 0 4.85 2.14 4.85 4.79v46.38c0 2.65-2.16 4.8-4.85 4.8h-46.9c-2.69 0-4.86-2.15-4.86-4.8v-46.38c0-2.65 2.17-4.79 4.86-4.79z"/>
		<path class="s11" d="m141.77 207.9h46.91c2.68 0 4.85 2.14 4.85 4.79v46.38c0 2.65-2.17 4.8-4.85 4.8h-46.91c-2.68 0-4.85-2.15-4.85-4.8v-46.38c0-2.65 2.17-4.79 4.85-4.79z"/>
		<path class="s12" d="m211.32 207.9h46.91c2.68 0 4.85 2.14 4.85 4.79v46.38c0 2.65-2.17 4.8-4.85 4.8h-46.91c-2.68 0-4.85-2.15-4.85-4.8v-46.38c0-2.65 2.17-4.79 4.85-4.79z"/>
		<path class="s13" d="m280.87 207.9h46.9c2.69 0 4.86 2.14 4.86 4.79v46.38c0 2.65-2.17 4.8-4.86 4.8h-46.9c-2.69 0-4.85-2.15-4.85-4.8v-46.38c0-2.65 2.16-4.79 4.85-4.79z"/>
		<path class="s14" d="m72.23 276.66h46.9c2.69 0 4.85 2.14 4.85 4.8v46.37c0 2.65-2.16 4.8-4.85 4.8h-46.9c-2.69 0-4.86-2.15-4.86-4.8v-46.37c0-2.66 2.17-4.8 4.86-4.8z"/>
		<path class="s9" d="m141.77 276.66h46.91c2.68 0 4.85 2.14 4.85 4.8v46.37c0 2.65-2.17 4.8-4.85 4.8h-46.91c-2.68 0-4.85-2.15-4.85-4.8v-46.37c0-2.66 2.17-4.8 4.85-4.8z"/>
		<path class="s15" d="m211.32 276.66h46.91c2.68 0 4.85 2.14 4.85 4.8v46.37c0 2.65-2.17 4.8-4.85 4.8h-46.91c-2.68 0-4.85-2.15-4.85-4.8v-46.37c0-2.66 2.17-4.8 4.85-4.8z"/>
		<path class="s16" d="m280.87 276.66h46.9c2.69 0 4.86 2.14 4.86 4.8v46.37c0 2.65-2.17 4.8-4.86 4.8h-46.9c-2.69 0-4.85-2.15-4.85-4.8v-46.37c0-2.66 2.16-4.8 4.85-4.8z"/>
	</g>
</svg>